<mxfile host="65bd71144e">
    <diagram id="0WG2GnwaWDCK3er8-NvM" name="PÃ¡gina-1">
        <mxGraphModel dx="868" dy="1183" grid="1" gridSize="10" guides="1" tooltips="1" connect="1" arrows="1" fold="1" page="0" pageScale="1" pageWidth="827" pageHeight="1169" math="0" shadow="0">
            <root>
                <mxCell id="0"/>
                <mxCell id="1" parent="0"/>
                <mxCell id="4" value="" style="edgeStyle=none;html=1;fontFamily=Comic Sans MS;fontSize=18;strokeColor=#6600CC;shadow=1;" edge="1" parent="1" source="2" target="3">
                    <mxGeometry relative="1" as="geometry"/>
                </mxCell>
                <mxCell id="2" value="&lt;h3&gt;&lt;font face=&quot;Comic Sans MS&quot; style=&quot;font-size: 24px&quot; color=&quot;#000000&quot;&gt;INICIO&lt;/font&gt;&lt;/h3&gt;" style="ellipse;whiteSpace=wrap;html=1;fillColor=#FF33FF;strokeColor=#FF99FF;gradientColor=#FF66FF;shadow=1;sketch=1;" vertex="1" parent="1">
                    <mxGeometry x="326.25" y="-100" width="184" height="110" as="geometry"/>
                </mxCell>
                <mxCell id="6" value="" style="edgeStyle=none;html=1;shadow=1;fontFamily=Comic Sans MS;fontSize=24;fontColor=#000000;strokeColor=#6600CC;" edge="1" parent="1" source="3" target="5">
                    <mxGeometry relative="1" as="geometry"/>
                </mxCell>
                <mxCell id="3" value="&lt;font style=&quot;font-size: 24px&quot; color=&quot;#000000&quot; face=&quot;Comic Sans MS&quot;&gt;x &lt;/font&gt;&lt;font style=&quot;font-size: 24px&quot; face=&quot;Comic Sans MS&quot; color=&quot;#ff0000&quot;&gt;, &lt;/font&gt;&lt;font style=&quot;font-size: 24px&quot; color=&quot;#000000&quot; face=&quot;Comic Sans MS&quot;&gt;y&lt;/font&gt;" style="shape=parallelogram;perimeter=parallelogramPerimeter;whiteSpace=wrap;html=1;fixedSize=1;fillColor=#B266FF;strokeColor=#B266FF;gradientColor=#D970FF;shadow=1;sketch=1;labelBorderColor=none;" vertex="1" parent="1">
                    <mxGeometry x="310" y="40" width="230" height="70" as="geometry"/>
                </mxCell>
                <mxCell id="8" value="" style="edgeStyle=none;html=1;shadow=1;fontFamily=Comic Sans MS;fontSize=24;fontColor=#000000;strokeColor=#6600CC;" edge="1" parent="1" source="5" target="7">
                    <mxGeometry relative="1" as="geometry">
                        <Array as="points">
                            <mxPoint x="690" y="220"/>
                            <mxPoint x="700" y="250"/>
                        </Array>
                    </mxGeometry>
                </mxCell>
                <mxCell id="35" value="" style="edgeStyle=none;html=1;shadow=1;fontFamily=Comic Sans MS;fontSize=24;fontColor=#FF0000;strokeColor=#6600CC;" edge="1" parent="1" source="5" target="34">
                    <mxGeometry relative="1" as="geometry">
                        <Array as="points">
                            <mxPoint x="150" y="220"/>
                        </Array>
                    </mxGeometry>
                </mxCell>
                <mxCell id="5" value="&lt;font style=&quot;font-size: 24px&quot;&gt;&lt;b&gt;&lt;font color=&quot;#000000&quot;&gt;x&lt;/font&gt;&lt;font color=&quot;#ff0000&quot;&gt;&amp;gt;&lt;/font&gt;&lt;font color=&quot;#000000&quot;&gt;0 and y &lt;/font&gt;&lt;font color=&quot;#ff0000&quot;&gt;&amp;gt; &lt;/font&gt;&lt;font color=&quot;#000000&quot;&gt;0&amp;nbsp;&lt;/font&gt;&lt;/b&gt;&lt;/font&gt;" style="rhombus;whiteSpace=wrap;html=1;fillColor=#007FFF;strokeColor=#CC99FF;gradientColor=#CC99FF;shadow=1;sketch=1;labelBorderColor=none;" vertex="1" parent="1">
                    <mxGeometry x="326.25" y="160" width="197.5" height="130" as="geometry"/>
                </mxCell>
                <mxCell id="11" value="" style="edgeStyle=none;html=1;shadow=1;fontFamily=Comic Sans MS;fontSize=24;fontColor=#000000;strokeColor=#6600CC;" edge="1" parent="1" source="7" target="10">
                    <mxGeometry relative="1" as="geometry"/>
                </mxCell>
                <mxCell id="7" value="&lt;font style=&quot;font-size: 24px&quot;&gt;&lt;b&gt;&lt;font color=&quot;#000000&quot;&gt;z&lt;/font&gt;&lt;font color=&quot;#ff0000&quot;&gt;=&lt;/font&gt;&lt;font color=&quot;#000000&quot;&gt; primer cuadrante&amp;nbsp;&lt;/font&gt;&lt;/b&gt;&lt;/font&gt;" style="whiteSpace=wrap;html=1;fillColor=#99FFFF;strokeColor=#FF99FF;gradientColor=#9999FF;shadow=1;sketch=1;labelBorderColor=none;" vertex="1" parent="1">
                    <mxGeometry x="580" y="240" width="190" height="80" as="geometry"/>
                </mxCell>
                <mxCell id="13" value="" style="edgeStyle=none;html=1;shadow=1;fontFamily=Comic Sans MS;fontSize=24;fontColor=#000000;strokeColor=#6600CC;" edge="1" parent="1" source="10" target="12">
                    <mxGeometry relative="1" as="geometry"/>
                </mxCell>
                <mxCell id="10" value="&lt;b style=&quot;color: rgb(0 , 0 , 0) ; font-size: 24px&quot;&gt;z&lt;/b&gt;&lt;b style=&quot;font-size: 24px&quot;&gt;&lt;font color=&quot;#ff0000&quot;&gt;=&lt;/font&gt;&lt;/b&gt;&lt;b style=&quot;color: rgb(0 , 0 , 0) ; font-size: 24px&quot;&gt; segundo cuadrante&lt;/b&gt;" style="whiteSpace=wrap;html=1;fillColor=#99CCFF;strokeColor=#FF99FF;gradientColor=#9999FF;shadow=1;sketch=1;labelBorderColor=none;" vertex="1" parent="1">
                    <mxGeometry x="580" y="360" width="190" height="100" as="geometry"/>
                </mxCell>
                <mxCell id="15" value="" style="edgeStyle=none;html=1;shadow=1;fontFamily=Comic Sans MS;fontSize=24;fontColor=#000000;strokeColor=#6600CC;" edge="1" parent="1" source="12" target="14">
                    <mxGeometry relative="1" as="geometry"/>
                </mxCell>
                <mxCell id="12" value="&lt;b style=&quot;color: rgb(0 , 0 , 0) ; font-size: 24px&quot;&gt;z&lt;/b&gt;&lt;b style=&quot;font-size: 24px&quot;&gt;&lt;font color=&quot;#ff0000&quot;&gt;= &lt;/font&gt;&lt;/b&gt;&lt;b style=&quot;color: rgb(0 , 0 , 0) ; font-size: 24px&quot;&gt;Tercer&lt;br&gt;cuadrante&amp;nbsp;&lt;/b&gt;" style="whiteSpace=wrap;html=1;fillColor=#99CCFF;strokeColor=#FF99FF;gradientColor=#9999FF;shadow=1;sketch=1;labelBorderColor=none;" vertex="1" parent="1">
                    <mxGeometry x="580" y="475" width="200" height="110" as="geometry"/>
                </mxCell>
                <mxCell id="18" value="" style="edgeStyle=none;html=1;shadow=1;fontFamily=Comic Sans MS;fontSize=24;fontColor=#000000;strokeColor=#6600CC;" edge="1" parent="1" source="14" target="17">
                    <mxGeometry relative="1" as="geometry"/>
                </mxCell>
                <mxCell id="14" value="&lt;b style=&quot;color: rgb(0 , 0 , 0) ; font-size: 24px&quot;&gt;z&lt;/b&gt;&lt;b style=&quot;font-size: 24px&quot;&gt;&lt;font color=&quot;#ff0000&quot;&gt;=&lt;/font&gt;&lt;font color=&quot;#000000&quot;&gt;C&lt;/font&gt;&lt;/b&gt;&lt;b style=&quot;color: rgb(0 , 0 , 0) ; font-size: 24px&quot;&gt;uarto&lt;br&gt;cuadrante&amp;nbsp;&lt;/b&gt;" style="whiteSpace=wrap;html=1;fillColor=#99CCFF;strokeColor=#FF99FF;gradientColor=#9999FF;shadow=1;sketch=1;labelBorderColor=none;" vertex="1" parent="1">
                    <mxGeometry x="580" y="620" width="200" height="115" as="geometry"/>
                </mxCell>
                <mxCell id="20" value="" style="edgeStyle=none;html=1;shadow=1;fontFamily=Comic Sans MS;fontSize=24;fontColor=#000000;strokeColor=#6600CC;" edge="1" parent="1" source="17" target="19">
                    <mxGeometry relative="1" as="geometry"/>
                </mxCell>
                <mxCell id="17" value="&lt;span style=&quot;font-size: 24px&quot;&gt;&lt;b&gt;&lt;font color=&quot;#000000&quot;&gt;z&lt;/font&gt;&lt;font color=&quot;#ff0000&quot;&gt;= &lt;/font&gt;&lt;font color=&quot;#000000&quot;&gt;Eje Y&lt;/font&gt;&lt;/b&gt;&lt;/span&gt;" style="whiteSpace=wrap;html=1;fillColor=#99CCFF;strokeColor=#FF99FF;gradientColor=#9999FF;shadow=1;sketch=1;labelBorderColor=none;" vertex="1" parent="1">
                    <mxGeometry x="580" y="760" width="200" height="90" as="geometry"/>
                </mxCell>
                <mxCell id="22" value="" style="edgeStyle=none;html=1;shadow=1;fontFamily=Comic Sans MS;fontSize=24;fontColor=#000000;strokeColor=#6600CC;" edge="1" parent="1" source="19" target="21">
                    <mxGeometry relative="1" as="geometry"/>
                </mxCell>
                <mxCell id="19" value="&lt;span style=&quot;font-size: 24px&quot;&gt;&lt;b&gt;&lt;font color=&quot;#000000&quot;&gt;z&lt;/font&gt;&lt;font color=&quot;#ff0000&quot;&gt;= &lt;/font&gt;&lt;font color=&quot;#000000&quot;&gt;Eje X&lt;/font&gt;&lt;/b&gt;&lt;/span&gt;" style="whiteSpace=wrap;html=1;fillColor=#99CCFF;strokeColor=#FF99FF;gradientColor=#9999FF;shadow=1;sketch=1;labelBorderColor=none;" vertex="1" parent="1">
                    <mxGeometry x="580" y="880" width="200" height="70" as="geometry"/>
                </mxCell>
                <mxCell id="53" style="edgeStyle=none;html=1;shadow=1;fontFamily=Comic Sans MS;fontSize=24;fontColor=#FF0000;strokeColor=#6600CC;entryX=1;entryY=0.5;entryDx=0;entryDy=0;" edge="1" parent="1" source="21" target="51">
                    <mxGeometry relative="1" as="geometry">
                        <mxPoint x="680" y="1090" as="targetPoint"/>
                        <Array as="points">
                            <mxPoint x="680" y="1200"/>
                        </Array>
                    </mxGeometry>
                </mxCell>
                <mxCell id="21" value="&lt;b style=&quot;color: rgb(0 , 0 , 0) ; font-size: 24px&quot;&gt;z&lt;/b&gt;&lt;b style=&quot;font-size: 24px&quot;&gt;&lt;font color=&quot;#ff0000&quot;&gt;= &lt;/font&gt;&lt;/b&gt;&lt;b style=&quot;color: rgb(0 , 0 , 0) ; font-size: 24px&quot;&gt;Origen&lt;/b&gt;" style="whiteSpace=wrap;html=1;fillColor=#99CCFF;strokeColor=#FF99FF;gradientColor=#9999FF;shadow=1;sketch=1;labelBorderColor=none;" vertex="1" parent="1">
                    <mxGeometry x="610" y="970" width="140" height="90" as="geometry"/>
                </mxCell>
                <mxCell id="26" value="Falso" style="text;html=1;align=center;verticalAlign=middle;resizable=0;points=[];autosize=1;strokeColor=none;fillColor=none;fontSize=24;fontFamily=Comic Sans MS;fontColor=#FF0000;" vertex="1" parent="1">
                    <mxGeometry x="100" y="155" width="70" height="30" as="geometry"/>
                </mxCell>
                <mxCell id="27" value="Verdadero" style="text;html=1;align=center;verticalAlign=middle;resizable=0;points=[];autosize=1;strokeColor=none;fillColor=none;fontSize=24;fontFamily=Comic Sans MS;fontColor=#FF0000;" vertex="1" parent="1">
                    <mxGeometry x="585" y="155" width="130" height="30" as="geometry"/>
                </mxCell>
                <mxCell id="38" value="" style="edgeStyle=none;html=1;shadow=1;fontFamily=Comic Sans MS;fontSize=24;fontColor=#FF0000;strokeColor=#6600CC;" edge="1" parent="1" source="34" target="37">
                    <mxGeometry relative="1" as="geometry"/>
                </mxCell>
                <mxCell id="34" value="&lt;font style=&quot;font-size: 24px&quot;&gt;&lt;b&gt;&lt;font color=&quot;#000000&quot;&gt;x&lt;/font&gt;&lt;font color=&quot;#ff0000&quot;&gt;&amp;gt;&lt;/font&gt;&lt;font color=&quot;#000000&quot;&gt;0 and y &lt;/font&gt;&lt;font color=&quot;#ff0000&quot;&gt;&amp;gt; &lt;/font&gt;&lt;font color=&quot;#000000&quot;&gt;0&amp;nbsp;&lt;/font&gt;&lt;/b&gt;&lt;/font&gt;" style="rhombus;whiteSpace=wrap;html=1;fillColor=#99CCFF;strokeColor=#CC99FF;gradientColor=#CC99FF;shadow=1;sketch=1;labelBorderColor=none;" vertex="1" parent="1">
                    <mxGeometry x="60" y="225" width="197.5" height="110" as="geometry"/>
                </mxCell>
                <mxCell id="40" value="" style="edgeStyle=none;html=1;shadow=1;fontFamily=Comic Sans MS;fontSize=24;fontColor=#FF0000;strokeColor=#6600CC;" edge="1" parent="1" source="37" target="39">
                    <mxGeometry relative="1" as="geometry"/>
                </mxCell>
                <mxCell id="37" value="&lt;font style=&quot;font-size: 24px&quot;&gt;&lt;b&gt;&lt;font color=&quot;#000000&quot;&gt;x&lt;/font&gt;&lt;font color=&quot;#ff0000&quot;&gt;&amp;gt;&lt;/font&gt;&lt;font color=&quot;#000000&quot;&gt;0 and y &lt;/font&gt;&lt;font color=&quot;#ff0000&quot;&gt;&amp;lt;&lt;/font&gt;&lt;font color=&quot;#000000&quot;&gt;0&amp;nbsp;&lt;/font&gt;&lt;/b&gt;&lt;/font&gt;" style="rhombus;whiteSpace=wrap;html=1;fillColor=#99CCFF;strokeColor=#CC99FF;gradientColor=#CC99FF;shadow=1;sketch=1;labelBorderColor=none;" vertex="1" parent="1">
                    <mxGeometry x="60" y="350" width="197.5" height="110" as="geometry"/>
                </mxCell>
                <mxCell id="42" value="" style="edgeStyle=none;html=1;shadow=1;fontFamily=Comic Sans MS;fontSize=24;fontColor=#FF0000;strokeColor=#6600CC;" edge="1" parent="1" source="39" target="41">
                    <mxGeometry relative="1" as="geometry"/>
                </mxCell>
                <mxCell id="39" value="&lt;font style=&quot;font-size: 24px&quot;&gt;&lt;b&gt;&lt;font color=&quot;#000000&quot;&gt;x&lt;/font&gt;&lt;font color=&quot;#ff0000&quot;&gt;&amp;gt;&lt;/font&gt;&lt;font color=&quot;#000000&quot;&gt;0 and y &lt;/font&gt;&lt;font color=&quot;#ff0000&quot;&gt;&amp;gt;&lt;/font&gt;&lt;font color=&quot;#000000&quot;&gt;0&amp;nbsp;&lt;/font&gt;&lt;/b&gt;&lt;/font&gt;" style="rhombus;whiteSpace=wrap;html=1;fillColor=#99CCFF;strokeColor=#CC99FF;gradientColor=#CC99FF;shadow=1;sketch=1;labelBorderColor=none;" vertex="1" parent="1">
                    <mxGeometry x="60" y="475" width="197.5" height="110" as="geometry"/>
                </mxCell>
                <mxCell id="44" value="" style="edgeStyle=none;html=1;shadow=1;fontFamily=Comic Sans MS;fontSize=24;fontColor=#FF0000;strokeColor=#6600CC;" edge="1" parent="1" source="41">
                    <mxGeometry relative="1" as="geometry">
                        <mxPoint x="159.42299156679985" y="740.3750554815799" as="targetPoint"/>
                    </mxGeometry>
                </mxCell>
                <mxCell id="46" value="" style="edgeStyle=none;html=1;shadow=1;fontFamily=Comic Sans MS;fontSize=24;fontColor=#000000;strokeColor=#6600CC;" edge="1" parent="1" source="41" target="45">
                    <mxGeometry relative="1" as="geometry"/>
                </mxCell>
                <mxCell id="41" value="&lt;font style=&quot;font-size: 24px&quot;&gt;&lt;b&gt;&lt;font color=&quot;#000000&quot;&gt;x&lt;/font&gt;&lt;font color=&quot;#ff0000&quot;&gt;&amp;gt;&lt;/font&gt;&lt;font color=&quot;#000000&quot;&gt;0 and y &lt;/font&gt;&lt;font color=&quot;#ff0000&quot;&gt;&amp;lt;&lt;/font&gt;&lt;font color=&quot;#000000&quot;&gt;0&amp;nbsp;&lt;/font&gt;&lt;/b&gt;&lt;/font&gt;" style="rhombus;whiteSpace=wrap;html=1;fillColor=#99CCFF;strokeColor=#CC99FF;gradientColor=#CC99FF;shadow=1;sketch=1;labelBorderColor=none;" vertex="1" parent="1">
                    <mxGeometry x="60" y="610" width="197.5" height="110" as="geometry"/>
                </mxCell>
                <mxCell id="48" value="" style="edgeStyle=none;html=1;shadow=1;fontFamily=Comic Sans MS;fontSize=24;fontColor=#FF0000;strokeColor=#6600CC;" edge="1" parent="1" source="45" target="47">
                    <mxGeometry relative="1" as="geometry"/>
                </mxCell>
                <mxCell id="45" value="&lt;span style=&quot;font-size: 24px&quot;&gt;&lt;b&gt;&lt;font color=&quot;#000000&quot;&gt;x&lt;/font&gt;&lt;font color=&quot;#ff0000&quot;&gt; ==&lt;/font&gt;&lt;font color=&quot;#000000&quot;&gt; 0 and y !&lt;/font&gt;&lt;font color=&quot;#ff0000&quot;&gt;=&lt;/font&gt;&lt;font color=&quot;#000000&quot;&gt;0&lt;/font&gt;&lt;/b&gt;&lt;/span&gt;" style="rhombus;whiteSpace=wrap;html=1;fillColor=#99CCFF;strokeColor=#CC99FF;gradientColor=#CC99FF;shadow=1;sketch=1;labelBorderColor=none;" vertex="1" parent="1">
                    <mxGeometry x="60" y="735" width="190" height="115" as="geometry"/>
                </mxCell>
                <mxCell id="50" value="" style="edgeStyle=none;html=1;shadow=1;fontFamily=Comic Sans MS;fontSize=24;fontColor=#FF0000;strokeColor=#6600CC;" edge="1" parent="1" source="47">
                    <mxGeometry relative="1" as="geometry">
                        <mxPoint x="155" y="980" as="targetPoint"/>
                    </mxGeometry>
                </mxCell>
                <mxCell id="47" value="&lt;span style=&quot;font-size: 24px&quot;&gt;&lt;b&gt;&lt;font color=&quot;#000000&quot;&gt;x&lt;/font&gt;&lt;font color=&quot;#ff0000&quot;&gt;&amp;nbsp;!=&amp;nbsp;&lt;/font&gt;&lt;font color=&quot;#000000&quot;&gt;0 and y&amp;nbsp;&lt;/font&gt;&lt;font color=&quot;#ff0000&quot;&gt;==&amp;nbsp;&lt;/font&gt;&lt;font color=&quot;#000000&quot;&gt;0&lt;/font&gt;&lt;/b&gt;&lt;/span&gt;" style="rhombus;whiteSpace=wrap;html=1;fillColor=#99CCFF;strokeColor=#CC99FF;gradientColor=#CC99FF;shadow=1;sketch=1;labelBorderColor=none;" vertex="1" parent="1">
                    <mxGeometry x="60" y="910" width="200" height="100" as="geometry"/>
                </mxCell>
                <mxCell id="52" value="" style="edgeStyle=none;html=1;shadow=1;fontFamily=Comic Sans MS;fontSize=24;fontColor=#FF0000;strokeColor=#6600CC;" edge="1" parent="1" source="47" target="51">
                    <mxGeometry relative="1" as="geometry">
                        <mxPoint x="156.44927536231876" y="1079.2753623188405" as="sourcePoint"/>
                        <Array as="points">
                            <mxPoint x="160" y="1200"/>
                        </Array>
                    </mxGeometry>
                </mxCell>
                <mxCell id="57" value="" style="edgeStyle=none;html=1;shadow=1;fontFamily=Comic Sans MS;fontSize=18;fontColor=#000000;strokeColor=#6600CC;" edge="1" parent="1" source="51" target="54">
                    <mxGeometry relative="1" as="geometry"/>
                </mxCell>
                <mxCell id="51" value="&lt;font style=&quot;font-size: 18px&quot; face=&quot;Comic Sans MS&quot; color=&quot;#000000&quot;&gt;&lt;b&gt;Z&lt;/b&gt;&lt;/font&gt;" style="shape=document;whiteSpace=wrap;html=1;boundedLbl=1;fillColor=#99CCFF;strokeColor=#CC99FF;gradientColor=#CC99FF;shadow=1;sketch=1;labelBorderColor=none;" vertex="1" parent="1">
                    <mxGeometry x="320" y="1140" width="170" height="110" as="geometry"/>
                </mxCell>
                <mxCell id="54" value="&lt;h3&gt;&lt;font color=&quot;#000000&quot; face=&quot;Comic Sans MS&quot;&gt;&lt;span style=&quot;font-size: 24px&quot;&gt;FIN&lt;/span&gt;&lt;/font&gt;&lt;/h3&gt;" style="ellipse;whiteSpace=wrap;html=1;fillColor=#FF33FF;strokeColor=#FF99FF;gradientColor=#FF66FF;shadow=1;sketch=1;" vertex="1" parent="1">
                    <mxGeometry x="330" y="1280" width="150" height="90" as="geometry"/>
                </mxCell>
            </root>
        </mxGraphModel>
    </diagram>
</mxfile>